<?xml version="1.0" standalone="no"?>
<!DOCTYPE svg PUBLIC "-//W3C//DTD SVG 1.1//EN" "http://www.w3.org/Graphics/SVG/1.1/DTD/svg11.dtd"><svg t="1668320361995"
    class="icon" viewBox="0 0 1024 1024" version="1.1" xmlns="http://www.w3.org/2000/svg" p-id="6823"
    xmlns:xlink="http://www.w3.org/1999/xlink" width="200" height="200">
    <path
        fill="#828080"
        d="M937.950749 541.878494 522.51132 956.651103c-14.947023 14.94641-39.186046 14.94641-54.152513 0-14.947023-14.94641-14.947023-39.129182 0-54.076616l391.256689-390.590859L468.357784 121.374348c-14.947023-14.909571-14.947023-39.129182 0-54.058197 14.966466-14.929014 39.20549-14.929014 54.152513 0l415.439429 414.754189c8.234882 8.215102 11.49834 19.175735 10.681708 29.912263C949.449089 522.721179 946.185632 533.680788 937.950749 541.878494zM489.111284 511.983627c0.815608 10.737552-2.429428 21.697161-10.663287 29.894867L139.582638 880.21013c-14.948046 14.909571-39.20549 14.909571-54.152513 0-14.966466-14.947434-14.966466-39.167045 0-54.077639l314.680572-314.148863L85.429102 197.834764c-14.966466-14.927991-14.966466-39.129182 0-54.058197 14.947023-14.929014 39.20549-14.929014 54.152513 0l338.864335 338.293773C486.681856 490.286466 489.926893 501.247098 489.111284 511.983627z"
        p-id="6824"></path>
</svg>